<svg width="49" height="58" viewBox="0 0 49 58" fill="none" xmlns="http://www.w3.org/2000/svg">
<path fill-rule="evenodd" clip-rule="evenodd" d="M8.90825 8.75834C17.5193 0.147285 31.4806 0.147283 40.0917 8.75834C48.7027 17.3694 48.7027 31.3307 40.0917 39.9417L24.5 55.5335L8.90825 39.9417C0.297186 31.3307 0.297186 17.3694 8.90825 8.75834ZM24.5 30.6501C27.9793 30.6501 30.8 27.8294 30.8 24.35C30.8 20.8707 27.9793 18.05 24.5 18.05C21.0206 18.05 18.2 20.8707 18.2 24.35C18.2 27.8294 21.0206 30.6501 24.5 30.6501Z" fill="white"/>
<path d="M40.0917 8.75834L39.031 9.819V9.819L40.0917 8.75834ZM8.90825 8.75834L9.96891 9.819L8.90825 8.75834ZM40.0917 39.9417L39.031 38.8811L40.0917 39.9417ZM24.5 55.5335L23.4393 56.5941L24.5 57.6548L25.5606 56.5941L24.5 55.5335ZM8.90825 39.9417L9.96891 38.8811H9.96891L8.90825 39.9417ZM41.1523 7.69768C31.9555 -1.49916 17.0444 -1.49916 7.84759 7.69768L9.96891 9.819C17.9942 1.79373 31.0057 1.79373 39.031 9.819L41.1523 7.69768ZM41.1523 41.0024C50.3492 31.8056 50.3492 16.8945 41.1523 7.69768L39.031 9.819C47.0563 17.8443 47.0563 30.8558 39.031 38.8811L41.1523 41.0024ZM25.5606 56.5941L41.1523 41.0024L39.031 38.8811L23.4393 54.4728L25.5606 56.5941ZM7.84759 41.0024L23.4393 56.5941L25.5606 54.4728L9.96891 38.8811L7.84759 41.0024ZM7.84759 7.69768C-1.34926 16.8945 -1.34926 31.8056 7.84759 41.0024L9.96891 38.8811C1.94363 30.8558 1.94363 17.8443 9.96891 9.819L7.84759 7.69768ZM29.3 24.35C29.3 27.001 27.1509 29.1501 24.5 29.1501V32.1501C28.8078 32.1501 32.3 28.6579 32.3 24.35H29.3ZM24.5 19.55C27.1509 19.55 29.3 21.6991 29.3 24.35H32.3C32.3 20.0422 28.8078 16.55 24.5 16.55V19.55ZM19.7 24.35C19.7 21.6991 21.849 19.55 24.5 19.55V16.55C20.1921 16.55 16.7 20.0422 16.7 24.35H19.7ZM24.5 29.1501C21.849 29.1501 19.7 27.001 19.7 24.35H16.7C16.7 28.6579 20.1921 32.1501 24.5 32.1501V29.1501Z" fill="#5FAAB7"/>
</svg>
